<?xml version="1.0" standalone="no"?>
<!DOCTYPE svg PUBLIC "-//W3C//DTD SVG 20010904//EN"
 "http://www.w3.org/TR/2001/REC-SVG-20010904/DTD/svg10.dtd">
<svg version="1.0" xmlns="http://www.w3.org/2000/svg"
 width="928.000000pt" height="928.000000pt" viewBox="0 0 928.000000 928.000000"
 preserveAspectRatio="xMidYMid meet">
<metadata>
Created by potrace 1.11, written by Peter Selinger 2001-2013
</metadata>
<g transform="translate(0.000000,928.000000) scale(0.100000,-0.100000)"
fill="#000000" stroke="none">
<path d="M9079 8276 c-2 -2 -38 -7 -79 -10 -41 -3 -88 -8 -105 -10 -16 -2 -62
-7 -101 -10 -39 -4 -80 -8 -90 -10 -11 -2 -57 -7 -104 -11 -47 -3 -92 -8 -100
-10 -8 -3 -44 -7 -80 -10 -36 -3 -78 -7 -95 -9 -16 -2 -61 -7 -100 -10 -38 -4
-88 -9 -110 -12 -55 -7 -109 -12 -185 -19 -36 -3 -78 -7 -95 -10 -16 -2 -61
-6 -100 -10 -38 -3 -81 -8 -95 -11 -14 -2 -52 -7 -85 -9 -33 -3 -82 -8 -110
-11 -27 -4 -66 -8 -85 -10 -99 -9 -139 -13 -175 -18 -100 -12 -206 -23 -300
-31 -27 -2 -50 -5 -50 -5 0 -1 -18 -3 -40 -5 -22 -2 -62 -7 -90 -9 -27 -3 -75
-8 -105 -11 -59 -6 -92 -10 -180 -20 -30 -3 -73 -8 -95 -10 -22 -1 -40 -4 -40
-4 0 -1 -22 -4 -50 -6 -27 -2 -72 -6 -100 -10 -27 -3 -72 -8 -100 -10 -125
-13 -153 -16 -200 -21 -27 -3 -68 -8 -90 -10 -22 -2 -58 -6 -80 -8 -40 -4 -96
-10 -215 -22 -36 -3 -73 -10 -82 -15 -12 -7 -18 -6 -18 1 0 6 -3 9 -7 7 -5 -3
-37 -8 -73 -12 -36 -3 -76 -8 -90 -10 -14 -2 -54 -6 -90 -9 -36 -3 -75 -8 -88
-10 -12 -3 -55 -8 -95 -11 -39 -4 -90 -9 -112 -11 -22 -2 -60 -6 -85 -9 -25
-2 -67 -6 -95 -10 -27 -3 -72 -8 -100 -10 -91 -9 -248 -26 -385 -41 -36 -4
-78 -8 -95 -10 -16 -1 -30 -3 -30 -4 0 0 -27 -3 -60 -6 -33 -3 -82 -7 -110 -9
-27 -2 -50 -5 -50 -6 0 -1 -4 -2 -120 -13 -38 -4 -90 -10 -115 -13 -25 -3 -61
-7 -80 -8 -19 -2 -35 -4 -35 -5 0 0 -29 -3 -65 -6 -80 -7 -125 -11 -125 -13 0
-1 -25 -4 -57 -6 -31 -3 -73 -7 -95 -9 -21 -3 -63 -8 -93 -11 -51 -5 -78 -8
-200 -20 -25 -3 -65 -7 -90 -9 -25 -3 -45 -6 -45 -6 0 -1 -18 -3 -40 -4 -57
-4 -164 -15 -206 -22 -20 -3 -56 -7 -80 -9 -56 -4 -155 -15 -194 -20 -17 -2
-59 -7 -95 -10 -36 -3 -83 -8 -105 -11 -22 -2 -65 -7 -95 -9 -71 -7 -146 -15
-190 -21 -19 -2 -58 -6 -85 -8 -37 -3 -49 -8 -47 -19 1 -8 38 -99 82 -202 44
-103 80 -191 80 -196 0 -5 5 -9 12 -9 6 0 9 -3 6 -6 -4 -3 2 -24 12 -47 10
-23 50 -118 90 -212 39 -93 78 -185 86 -202 28 -66 43 -100 82 -193 22 -52 48
-113 58 -135 9 -22 18 -42 18 -45 3 -15 61 -146 68 -155 4 -5 8 -17 8 -27 0
-10 4 -18 8 -18 5 0 9 -6 9 -12 0 -7 12 -40 27 -73 15 -33 31 -69 35 -80 5
-11 19 -44 32 -74 13 -30 24 -57 25 -60 1 -8 17 -46 53 -125 17 -38 31 -75 31
-82 0 -8 5 -14 12 -14 6 0 8 -3 5 -6 -4 -4 0 -19 7 -33 8 -14 33 -71 56 -126
23 -55 48 -113 55 -130 7 -16 50 -118 95 -225 45 -107 93 -219 106 -248 13
-29 24 -54 24 -56 0 -2 8 -21 17 -42 9 -22 17 -41 18 -44 0 -3 9 -23 19 -45
19 -43 37 -86 54 -125 12 -31 34 -82 58 -135 20 -46 18 -42 28 -77 5 -16 12
-28 17 -28 5 0 9 -7 9 -15 0 -15 29 -87 56 -137 9 -16 12 -28 8 -28 -3 0 -2
-6 4 -12 6 -7 26 -51 45 -98 20 -47 44 -103 53 -125 10 -22 18 -42 19 -45 3
-10 25 -62 44 -103 22 -49 32 -35 -94 -137 -44 -36 -84 -70 -90 -76 -8 -9 -93
-78 -130 -107 -5 -4 -21 -17 -35 -28 -14 -12 -45 -38 -70 -58 -24 -20 -52 -43
-61 -51 -9 -8 -29 -25 -45 -37 -16 -12 -40 -31 -54 -43 -14 -12 -38 -31 -53
-43 -16 -12 -36 -29 -45 -38 -10 -8 -53 -44 -97 -80 -44 -35 -87 -72 -96 -81
-9 -10 -21 -18 -27 -18 -6 0 -12 -4 -14 -8 -1 -4 -41 -39 -88 -77 -47 -39 -90
-74 -96 -80 -6 -5 -28 -23 -49 -40 -38 -29 -111 -89 -150 -123 -11 -10 -45
-38 -75 -62 -30 -25 -60 -49 -66 -55 -6 -5 -25 -21 -43 -35 -18 -14 -38 -30
-44 -35 -7 -6 -64 -53 -127 -105 -63 -52 -120 -99 -126 -105 -6 -5 -28 -23
-49 -40 -21 -16 -43 -35 -49 -40 -6 -6 -31 -26 -56 -45 -25 -19 -52 -41 -60
-50 -8 -9 -35 -31 -60 -50 -25 -19 -50 -39 -56 -45 -6 -5 -25 -21 -43 -35 -18
-14 -40 -32 -49 -40 -10 -9 -42 -36 -72 -60 -30 -24 -62 -51 -71 -60 -9 -8
-29 -24 -44 -35 -16 -11 -33 -25 -39 -31 -6 -6 -49 -41 -96 -79 -47 -38 -90
-74 -96 -80 -6 -5 -29 -23 -50 -40 -21 -16 -51 -41 -66 -55 -14 -14 -39 -34
-54 -45 -15 -11 -32 -25 -38 -30 -6 -6 -36 -30 -66 -55 -173 -140 -269 -224
-264 -231 2 -4 10 -6 17 -4 7 2 35 7 62 10 28 3 61 7 75 9 14 2 57 6 95 10 82
8 124 13 185 22 25 3 61 7 81 9 52 4 161 17 179 20 8 2 49 6 90 10 41 3 82 8
90 10 8 2 42 7 75 10 33 3 76 7 95 10 42 5 131 15 180 21 37 3 91 10 175 20
28 4 64 8 80 9 17 1 50 5 75 9 25 3 68 8 95 11 28 3 66 7 85 9 19 3 60 7 90
11 30 3 73 8 95 11 51 6 85 10 160 18 33 4 80 9 105 12 25 3 61 8 80 10 59 6
132 14 192 23 31 4 66 7 77 6 12 -1 21 2 21 7 0 5 4 6 10 3 5 -3 43 -2 82 4
40 5 102 13 138 17 62 6 95 11 95 14 0 0 29 3 65 6 67 5 90 8 175 18 61 8 161
19 273 31 23 3 61 7 85 10 23 3 58 8 77 10 93 10 139 15 190 21 30 4 66 8 80
9 66 7 148 16 180 20 97 13 195 25 265 30 22 2 60 7 85 10 25 3 59 8 76 10 28
4 111 14 174 20 14 2 25 4 25 4 0 1 23 4 50 6 77 7 137 13 175 19 50 7 116 15
185 21 33 3 76 8 95 11 19 3 53 7 75 9 22 2 59 6 83 9 52 7 100 13 172 21 87
10 132 15 180 21 25 3 65 7 90 10 25 2 61 6 80 8 19 3 58 7 85 11 28 3 68 8
90 10 22 3 65 7 95 10 68 7 124 14 170 21 19 2 58 7 85 10 105 10 141 14 175
19 19 2 61 7 93 10 32 4 66 8 75 10 9 1 46 6 82 10 36 3 76 8 90 10 14 2 52 7
85 10 33 4 80 9 105 12 25 2 61 6 80 8 19 2 35 4 35 5 0 1 18 3 40 4 22 2 63
6 91 10 28 4 68 9 90 11 54 4 154 16 259 30 28 4 66 8 85 10 19 2 38 4 43 4
11 1 9 20 -8 54 -37 80 -115 273 -115 284 0 7 -4 13 -9 13 -5 0 -11 10 -15 23
-3 13 -15 45 -28 73 -12 27 -21 52 -20 57 1 4 -2 7 -6 7 -5 0 -9 6 -9 13 0 6
-12 38 -26 70 -15 32 -27 59 -27 61 0 2 -10 25 -22 52 -12 27 -23 51 -23 54
-1 3 -9 23 -19 45 -10 22 -33 78 -53 125 -19 47 -48 113 -64 148 -16 35 -29
69 -29 76 0 6 -4 16 -9 21 -4 6 -23 46 -41 90 -18 44 -40 98 -50 120 -10 22
-30 69 -45 105 -14 36 -32 79 -40 95 -7 17 -39 91 -70 165 -63 153 -74 179
-85 200 -4 9 -31 72 -60 140 -28 69 -63 149 -76 178 -13 29 -24 55 -24 58 0 3
-11 30 -25 60 -14 30 -25 57 -25 59 0 3 -10 27 -21 53 -12 26 -27 61 -34 77
-7 17 -20 47 -29 68 -37 86 -46 107 -86 202 -23 55 -51 119 -61 142 -10 23
-19 44 -19 47 0 3 -13 34 -29 68 -15 35 -38 88 -51 118 -12 30 -30 73 -40 95
-20 47 -33 78 -34 85 -1 3 -7 14 -13 25 -6 11 -11 23 -12 28 0 4 -7 20 -15 36
-9 16 -13 31 -10 33 2 3 -2 11 -11 18 -8 7 -15 19 -15 26 0 7 -11 38 -25 68
-14 30 -25 57 -25 59 0 2 -10 26 -22 53 -12 27 -23 51 -23 54 0 3 -9 20 -18
37 -10 18 -17 34 -16 35 0 2 -4 16 -10 32 -12 31 -18 24 75 101 26 22 59 50
73 62 14 12 105 88 201 168 96 81 186 156 200 168 14 12 66 55 115 96 50 41
101 85 115 97 14 12 84 71 155 131 72 59 135 112 141 118 6 5 30 26 54 45 24
19 51 42 60 50 9 8 41 35 71 60 30 24 63 52 74 61 11 10 43 37 70 59 28 23 70
59 95 80 25 21 61 51 80 67 19 15 37 30 40 34 3 3 31 27 63 53 89 72 98 80
116 96 9 9 56 49 106 90 123 103 127 106 153 128 13 11 41 35 62 52 21 17 49
41 62 52 13 11 43 37 68 57 24 20 51 43 60 51 9 8 33 29 54 45 21 17 44 35 50
41 6 6 72 61 146 123 215 180 233 195 252 214 10 9 20 17 22 17 2 0 19 13 38
29 18 16 47 40 63 54 17 14 27 28 24 31 -3 3 -8 4 -10 2z m-3027 -1306 c-18
-16 -35 -30 -37 -30 -2 0 -17 -12 -33 -27 -16 -16 -43 -39 -61 -53 -17 -14
-41 -34 -54 -45 -13 -12 -45 -39 -72 -60 -27 -22 -56 -47 -65 -55 -9 -8 -28
-24 -41 -35 -35 -29 -142 -118 -155 -130 -7 -5 -31 -26 -54 -45 -23 -19 -50
-42 -59 -50 -10 -8 -40 -33 -66 -55 -82 -68 -139 -116 -165 -139 -14 -11 -79
-66 -145 -121 -66 -55 -122 -102 -125 -105 -6 -6 -236 -198 -263 -220 -11 -8
-29 -24 -41 -35 -12 -11 -44 -38 -71 -60 -27 -22 -57 -47 -66 -55 -9 -8 -52
-44 -95 -80 -43 -35 -86 -71 -96 -80 -9 -8 -29 -25 -45 -37 -15 -12 -41 -33
-56 -47 -16 -14 -47 -40 -70 -58 -22 -18 -48 -40 -56 -48 -9 -9 -54 -47 -101
-85 -47 -38 -87 -72 -90 -75 -3 -3 -30 -25 -60 -50 -30 -25 -66 -55 -80 -67
-80 -72 -100 -84 -100 -63 0 9 -16 49 -56 135 -28 61 -164 385 -164 390 0 3
-16 40 -35 81 -19 41 -35 77 -35 80 0 3 -8 24 -19 47 -10 23 -56 130 -101 237
-45 107 -90 213 -101 236 -10 22 -28 65 -39 95 -12 29 -32 77 -46 107 -13 29
-24 55 -24 57 0 3 -9 27 -21 53 -21 46 -32 73 -63 142 -8 19 -13 36 -11 39 5
5 104 14 162 15 24 1 43 4 43 7 0 3 6 6 13 6 14 1 159 13 202 18 17 2 57 6 90
9 33 4 78 8 100 11 22 2 65 7 95 10 30 3 73 8 95 10 22 3 63 8 90 10 28 3 68
7 90 10 89 9 152 16 195 20 49 4 138 14 185 20 17 2 59 7 95 10 36 3 81 7 100
10 19 2 62 7 95 10 33 3 78 7 100 10 22 2 60 7 85 9 25 3 70 8 100 11 30 4 67
8 81 9 14 2 31 6 37 10 7 4 12 2 12 -4 0 -6 4 -9 8 -6 8 5 26 7 145 21 44 5
119 13 202 20 27 3 65 7 85 9 19 3 64 8 100 11 36 3 81 8 100 10 51 7 137 16
280 30 56 5 165 20 180 24 2 0 -10 -12 -28 -29z m-372 -2616 c0 -8 13 -42 29
-75 17 -32 28 -59 26 -59 -2 0 10 -30 27 -67 36 -80 30 -66 153 -358 53 -126
102 -244 110 -260 14 -32 37 -86 40 -95 1 -3 8 -21 17 -40 8 -19 27 -64 42
-100 15 -36 33 -78 41 -95 7 -16 36 -86 65 -155 29 -69 63 -148 76 -177 13
-28 24 -54 24 -57 0 -4 10 -28 21 -54 38 -85 49 -110 49 -114 0 -1 -12 -4 -27
-4 -16 -1 -51 -4 -78 -8 -28 -3 -68 -8 -90 -11 -54 -5 -154 -17 -185 -21 -58
-7 -109 -13 -170 -19 -75 -8 -121 -14 -170 -20 -19 -3 -60 -7 -90 -10 -51 -5
-75 -7 -170 -20 -19 -3 -60 -7 -90 -10 -30 -3 -68 -8 -85 -10 -16 -3 -50 -7
-75 -9 -25 -3 -72 -8 -105 -12 -33 -3 -73 -8 -90 -9 -16 -1 -43 -5 -60 -8 -16
-4 -59 -9 -95 -12 -36 -3 -76 -7 -89 -10 -13 -2 -56 -7 -95 -10 -39 -3 -78 -7
-86 -10 -8 -2 -46 -7 -85 -10 -38 -3 -81 -8 -95 -10 -32 -5 -113 -15 -165 -20
-86 -9 -131 -14 -165 -19 -19 -3 -57 -8 -85 -10 -72 -7 -154 -16 -195 -22 -19
-3 -53 -7 -75 -9 -60 -5 -141 -14 -225 -25 -89 -11 -194 -23 -310 -36 -25 -2
-40 -1 -35 4 6 4 35 28 65 52 30 25 57 47 60 50 3 3 28 23 55 45 55 44 58 47
161 131 39 33 89 74 112 92 23 19 51 43 64 54 13 11 38 32 57 46 31 25 43 35
96 80 11 10 79 64 150 122 72 58 135 110 140 116 6 5 33 28 60 49 28 22 61 50
75 61 14 12 70 59 125 104 55 45 109 89 120 98 11 9 43 35 70 57 28 22 66 55
85 72 19 18 38 33 42 33 3 0 20 14 36 30 17 17 34 30 38 30 4 0 12 6 18 13 9
11 219 185 310 257 10 8 26 22 35 30 9 8 50 42 91 74 41 33 77 63 80 66 3 3
41 35 85 70 44 35 88 71 97 79 9 9 23 21 30 26 7 6 43 35 80 65 119 98 128
104 128 74z"/>
</g>
</svg>
